<?xml version="1.0" standalone="no"?>
<!DOCTYPE svg PUBLIC "-//W3C//DTD SVG 20010904//EN"
 "http://www.w3.org/TR/2001/REC-SVG-20010904/DTD/svg10.dtd">
<svg version="1.0" xmlns="http://www.w3.org/2000/svg"
 width="2000.000000pt" height="1500.000000pt" viewBox="0 0 2000.000000 1500.000000"
 preserveAspectRatio="xMidYMid meet">

<g transform="translate(0.000000,1500.000000) scale(0.100000,-0.100000)"
fill="#000000" stroke="none">
<path d="M6757 12165 c-781 -77 -1489 -326 -2137 -753 -699 -459 -1270 -1109
-1639 -1867 -686 -1408 -611 -3099 197 -4445 356 -593 853 -1112 1432 -1495
444 -294 934 -512 1430 -635 445 -111 761 -146 1242 -137 417 7 686 42 1063
137 1171 298 2175 1031 2818 2060 85 136 197 336 197 351 0 5 -24 9 -53 9
l-53 0 -39 -72 c-220 -411 -573 -863 -918 -1177 -739 -673 -1602 -1067 -2597
-1186 -183 -22 -643 -31 -840 -16 -835 64 -1617 341 -2290 814 -963 676 -1632
1694 -1864 2838 -104 514 -118 1122 -36 1628 201 1241 872 2314 1901 3039 531
375 1191 647 1829 756 310 53 411 61 790 61 380 0 485 -8 795 -61 1172 -201
2244 -878 2940 -1859 97 -137 223 -338 290 -462 l39 -73 53 0 c29 0 53 4 53 9
0 15 -112 214 -198 353 -189 303 -394 560 -657 823 -385 386 -774 666 -1250
900 -487 239 -975 382 -1535 451 -185 22 -770 28 -963 9z"/>
<path d="M9260 9349 c-32 -13 -78 -56 -96 -91 -21 -40 -18 -124 7 -167 47 -84
161 -116 254 -71 130 63 132 256 3 319 -48 23 -124 27 -168 10z"/>
<path d="M12397 9339 c-47 -25 -88 -86 -94 -142 -7 -59 23 -125 73 -163 34
-26 45 -29 114 -29 68 0 80 3 113 28 114 87 97 259 -30 313 -47 20 -131 17
-176 -7z"/>
<path d="M7420 8240 l0 -1080 140 0 140 0 0 209 0 208 156 144 c85 79 159 145
164 147 5 2 137 -157 295 -352 l286 -356 170 0 c142 0 169 2 162 14 -4 8 -161
208 -348 445 -187 238 -341 435 -343 440 -1 4 142 150 318 324 l321 317 -170
0 -169 0 -416 -380 c-228 -209 -418 -380 -421 -380 -3 0 -5 311 -5 690 l0 690
-140 0 -140 0 0 -1080z"/>
<path d="M5377 9194 c-4 -4 -7 -463 -7 -1021 l0 -1013 150 0 150 0 0 267 0
267 182 183 c131 131 185 180 194 172 6 -5 182 -207 390 -449 l379 -440 168 0
c92 0 167 2 167 5 0 2 -205 252 -455 555 -250 303 -455 555 -455 559 0 4 188
206 418 448 229 241 423 447 431 456 12 16 2 17 -151 17 l-165 0 -549 -565
-549 -566 -5 563 -5 563 -141 3 c-77 1 -143 -1 -147 -4z"/>
<path d="M10718 8710 c-178 -21 -326 -99 -409 -213 l-29 -40 0 121 0 122 -135
0 -135 0 0 -770 0 -770 139 0 140 0 3 463 c4 449 4 464 26 521 32 85 64 136
115 183 83 76 180 112 322 119 l80 3 0 133 0 133 -25 1 c-14 1 -55 -2 -92 -6z"/>
<path d="M11887 8709 c-182 -21 -334 -104 -419 -229 -16 -24 -17 -21 -17 98
l-1 122 -135 0 -135 0 0 -770 0 -770 140 0 140 0 0 420 c0 345 3 435 16 497
47 231 194 352 446 370 l88 6 0 133 0 134 -27 -1 c-16 -1 -59 -5 -96 -10z"/>
<path d="M13870 8710 c-92 -13 -216 -54 -275 -91 -27 -17 -76 -56 -107 -87
l-58 -56 0 112 0 112 -135 0 -135 0 0 -770 0 -770 139 0 140 0 4 458 c4 484 4
491 55 605 29 66 113 151 184 186 81 41 153 54 277 49 135 -5 207 -34 281
-115 99 -108 110 -182 110 -760 l0 -423 141 0 141 0 -4 518 c-4 492 -5 521
-26 595 -61 221 -213 373 -423 421 -84 20 -228 27 -309 16z"/>
<path d="M9190 7930 l0 -770 145 0 145 0 0 770 0 770 -145 0 -145 0 0 -770z"/>
<path d="M12350 7930 l0 -770 140 0 140 0 0 770 0 770 -140 0 -140 0 0 -770z"/>
<path d="M9507 6610 c-38 -10 -71 -20 -74 -23 -2 -3 8 -11 24 -19 27 -13 28
-16 31 -101 1 -48 1 -87 -1 -87 -2 0 -18 7 -35 16 -47 23 -149 21 -199 -4 -50
-26 -97 -78 -114 -129 -8 -21 -14 -77 -14 -128 0 -81 3 -96 30 -145 62 -113
183 -136 328 -62 4 2 7 -6 7 -17 0 -19 6 -21 54 -21 29 0 68 3 85 6 l32 7 -21
19 c-19 18 -20 29 -20 363 l0 345 -22 -1 c-13 0 -54 -9 -91 -19z m-53 -240
l26 -10 0 -204 c0 -203 0 -205 -22 -217 -13 -7 -42 -12 -66 -12 -53 0 -97 38
-113 98 -17 62 -13 214 6 263 32 78 97 110 169 82z"/>
<path d="M10347 6610 c-81 -22 -88 -26 -55 -39 14 -5 28 -17 32 -26 7 -20 8
-165 1 -165 -4 0 -19 7 -36 15 -38 20 -145 21 -190 2 -81 -34 -128 -111 -136
-223 -19 -244 145 -356 360 -246 4 2 7 -6 7 -17 0 -19 6 -21 63 -20 34 1 73 4
87 8 l25 7 -22 12 -23 13 0 349 0 350 -22 -1 c-13 0 -54 -9 -91 -19z m-52
-242 l25 -11 0 -203 c0 -199 0 -204 -22 -215 -30 -16 -91 -16 -122 0 -59 32
-90 171 -66 298 22 115 99 170 185 131z"/>
<path d="M12268 6611 c-79 -19 -90 -27 -54 -40 l26 -11 0 -309 0 -310 -26 -20
-27 -21 124 0 124 1 -27 20 -28 21 0 344 0 344 -22 -1 c-13 -1 -53 -9 -90 -18z"/>
<path d="M5380 6582 c0 -4 10 -12 23 -17 l22 -10 3 -305 3 -305 -28 -22 -28
-23 138 0 c90 0 136 4 132 10 -3 6 -12 10 -20 10 -7 0 -21 7 -29 16 -13 13
-16 42 -16 160 l0 145 73 -3 c72 -3 72 -3 92 -40 11 -21 23 -38 28 -38 4 0 7
44 6 98 0 94 -1 96 -17 73 -43 -62 -47 -65 -116 -69 l-66 -4 0 156 0 156 93 0
c111 0 122 -6 161 -89 38 -79 61 -82 52 -8 -3 28 -6 67 -6 85 l0 32 -250 0
c-137 0 -250 -3 -250 -8z"/>
<path d="M7740 6513 c-48 -72 -82 -103 -123 -115 l-42 -12 35 -5 35 -6 5 -207
c5 -190 7 -209 26 -235 11 -15 36 -34 55 -40 62 -23 159 2 187 48 14 23 5 24
-22 4 -27 -21 -70 -19 -90 4 -14 16 -16 43 -14 222 l3 204 58 3 c76 4 74 22
-3 22 l-60 0 0 75 c0 87 -11 95 -50 38z"/>
<path d="M6254 6408 c-17 -4 -50 -28 -73 -53 -23 -25 -44 -45 -46 -45 -3 0 -5
17 -5 38 0 65 -7 68 -99 37 -44 -14 -81 -31 -81 -36 0 -5 4 -9 9 -9 5 0 17 -7
25 -16 13 -13 16 -45 16 -195 l0 -180 -26 -24 -27 -25 127 0 c82 0 125 4 121
10 -3 6 -12 10 -20 10 -8 0 -21 10 -29 22 -13 18 -16 53 -16 169 0 136 2 148
23 180 29 43 47 46 85 14 56 -47 122 -26 122 39 0 53 -46 80 -106 64z"/>
<path d="M6619 6409 c-95 -14 -167 -79 -195 -175 -39 -135 14 -271 125 -322
145 -67 308 -7 361 133 16 41 15 150 0 203 -35 115 -156 182 -291 161z m115
-43 c35 -34 49 -120 44 -256 -7 -158 -30 -201 -108 -202 -83 -1 -110 58 -110
242 0 132 13 193 48 220 35 28 96 27 126 -4z"/>
<path d="M7298 6406 c-26 -7 -65 -24 -87 -39 -41 -28 -51 -23 -51 24 0 10 -5
19 -12 19 -17 0 -168 -54 -168 -60 0 -3 10 -10 22 -15 31 -14 36 -40 37 -201
1 -173 -4 -200 -38 -219 -24 -13 -15 -14 99 -14 l125 0 -27 20 -28 21 0 187 0
187 39 22 c45 26 103 29 125 7 23 -24 28 -67 24 -243 -3 -161 -3 -163 -28
-182 l-25 -20 120 1 120 0 -27 20 -28 21 0 184 c0 137 -4 193 -14 219 -24 56
-98 82 -178 61z"/>
<path d="M8188 6409 c-121 -18 -207 -126 -208 -258 0 -85 16 -134 62 -186 48
-55 111 -80 193 -78 77 2 122 21 169 73 39 44 42 69 3 32 -31 -29 -70 -42
-130 -42 -92 0 -141 51 -154 160 l-6 50 162 0 161 0 0 50 c0 142 -101 221
-252 199z m92 -29 c26 -14 40 -63 40 -136 l0 -64 -100 0 -100 0 0 30 c0 56 22
133 46 157 25 25 80 31 114 13z"/>
<path d="M8818 6406 c-26 -7 -62 -25 -82 -39 -19 -15 -37 -27 -40 -27 -3 0 -6
13 -6 29 0 17 -5 33 -11 36 -12 8 -169 -45 -169 -57 0 -4 4 -8 9 -8 5 0 17 -7
25 -16 13 -13 16 -45 16 -195 l0 -180 -26 -24 -27 -25 119 0 119 0 -25 20 -25
19 0 187 0 187 26 19 c15 11 47 22 72 25 36 4 49 1 66 -16 20 -20 21 -31 21
-210 l0 -189 -27 -21 -28 -20 120 0 120 -1 -25 20 c-25 19 -25 19 -30 225 l-5
207 -33 29 c-18 16 -43 29 -56 29 -14 0 -30 2 -38 4 -7 3 -34 -1 -60 -8z"/>
<path d="M10773 6409 c-82 -15 -143 -62 -179 -136 -57 -115 -26 -275 66 -342
97 -70 257 -58 330 25 41 47 38 61 -6 27 -30 -22 -49 -28 -103 -31 -57 -3 -71
0 -101 20 -43 29 -62 67 -68 136 l-4 52 161 0 161 0 0 48 c-1 137 -116 228
-257 201z m111 -52 c17 -23 21 -43 21 -100 l0 -72 -97 -3 -98 -3 0 47 c0 108
41 167 113 162 30 -2 45 -10 61 -31z"/>
<path d="M11875 6409 c-57 -9 -87 -23 -129 -60 -63 -55 -81 -100 -81 -204 0
-97 12 -133 64 -188 96 -104 283 -96 372 17 26 34 17 47 -14 18 -31 -29 -70
-42 -125 -42 -94 0 -144 50 -158 158 l-7 52 161 0 c157 0 160 0 165 23 11 44
-14 127 -52 171 -38 43 -122 67 -196 55z m80 -25 c28 -11 45 -60 45 -134 l0
-70 -101 0 -102 0 7 62 c8 63 36 132 58 141 19 8 74 8 93 1z"/>
<path d="M12699 6409 c-117 -17 -196 -107 -207 -234 -13 -172 89 -289 252
-288 90 0 145 23 194 79 47 52 62 100 62 190 0 173 -126 279 -301 253z m108
-34 c37 -26 48 -79 48 -230 0 -120 -3 -146 -20 -180 -23 -47 -70 -68 -120 -54
-59 17 -75 66 -75 239 0 137 8 181 42 217 26 27 91 32 125 8z"/>
<path d="M13369 6409 c-25 -4 -60 -14 -77 -23 -41 -21 -52 -20 -52 4 0 11 -6
20 -12 20 -18 0 -168 -54 -168 -60 0 -3 10 -10 23 -15 l22 -10 0 -320 0 -320
-22 -10 c-44 -19 -22 -25 97 -25 119 0 141 6 98 25 -22 9 -23 17 -26 124 -2
105 -1 113 15 107 41 -16 121 -26 158 -20 72 12 122 50 161 124 29 54 27 239
-3 296 -26 49 -74 92 -111 100 -49 10 -57 10 -103 3z m52 -70 c15 -17 32 -47
36 -67 12 -57 9 -223 -5 -264 -19 -54 -64 -88 -115 -88 -93 0 -87 -15 -87 220
l0 208 28 10 c15 6 47 11 70 11 37 1 49 -4 73 -30z"/>
<path d="M13883 6409 c-82 -15 -143 -62 -180 -137 -57 -116 -25 -274 67 -341
97 -70 257 -58 330 25 32 38 42 67 13 42 -81 -71 -217 -62 -268 16 -9 14 -19
52 -22 86 l-6 60 162 0 161 0 0 48 c-1 137 -116 228 -257 201z m109 -49 c20
-28 34 -114 24 -154 -6 -26 -8 -26 -101 -26 l-95 0 0 46 c0 65 19 122 49 145
35 28 98 23 123 -11z"/>
<path d="M14513 6408 c-17 -4 -51 -29 -76 -54 l-45 -45 -7 50 c-4 28 -10 51
-13 51 -15 1 -172 -55 -172 -61 0 -4 9 -9 20 -12 32 -8 40 -50 40 -212 0 -167
-6 -198 -42 -211 -28 -10 75 -17 180 -12 65 3 66 4 37 16 -16 7 -33 19 -37 25
-4 7 -8 80 -8 162 0 133 2 154 20 183 27 45 44 49 81 18 57 -49 129 -26 129
41 0 50 -47 77 -107 61z"/>
<path d="M11095 6385 c11 -8 25 -18 31 -24 6 -5 53 -110 105 -235 93 -224 94
-226 124 -226 l30 0 79 223 c43 122 86 230 94 240 8 9 23 17 33 17 10 0 21 5
24 10 4 6 -22 10 -69 10 -44 0 -76 -4 -76 -10 0 -5 9 -10 20 -10 11 0 23 -6
26 -13 7 -18 -100 -323 -112 -318 -11 5 -114 277 -114 303 0 11 11 23 25 28
14 5 25 12 25 15 0 3 -60 5 -132 5 -118 -1 -131 -2 -113 -15z"/>
</g>
</svg>
